<?xml version="1.0" encoding="UTF-8" standalone="no"?>
<!-- Created with Inkscape (http://www.inkscape.org/) -->

<svg
   xmlns:dc="http://purl.org/dc/elements/1.1/"
   xmlns:cc="http://creativecommons.org/ns#"
   xmlns:rdf="http://www.w3.org/1999/02/22-rdf-syntax-ns#"
   xmlns:svg="http://www.w3.org/2000/svg"
   xmlns="http://www.w3.org/2000/svg"
   xmlns:xlink="http://www.w3.org/1999/xlink"
   xmlns:sodipodi="http://sodipodi.sourceforge.net/DTD/sodipodi-0.dtd"
   xmlns:inkscape="http://www.inkscape.org/namespaces/inkscape"
   width="23.48283mm"
   height="28.16082mm"
   viewBox="0 0 23.48283 28.16082"
   version="1.1"
   id="svg8"
   inkscape:version="0.92.2 2405546, 2018-03-11"
   sodipodi:docname="nico.svg">
  <defs
     id="defs2">
    <linearGradient
       inkscape:collect="always"
       id="linearGradient4974">
      <stop
         style="stop-color:#000000;stop-opacity:1;"
         offset="0"
         id="stop4970" />
      <stop
         style="stop-color:#000000;stop-opacity:0;"
         offset="1"
         id="stop4972" />
    </linearGradient>
    <linearGradient
       inkscape:collect="always"
       xlink:href="#linearGradient4974"
       id="linearGradient4976"
       x1="108.16975"
       y1="165.81638"
       x2="131.51279"
       y2="165.81638"
       gradientUnits="userSpaceOnUse" />
  </defs>
  <sodipodi:namedview
     id="base"
     pagecolor="#ffffff"
     bordercolor="#666666"
     borderopacity="1.0"
     inkscape:pageopacity="0.0"
     inkscape:pageshadow="2"
     inkscape:zoom="7.9195959"
     inkscape:cx="20.774985"
     inkscape:cy="55.620232"
     inkscape:document-units="mm"
     inkscape:current-layer="layer1"
     showgrid="false"
     inkscape:window-width="1920"
     inkscape:window-height="1025"
     inkscape:window-x="0"
     inkscape:window-y="27"
     inkscape:window-maximized="1"
     fit-margin-top="0"
     fit-margin-left="0"
     fit-margin-right="0"
     fit-margin-bottom="0"
     inkscape:pagecheckerboard="true" />
  <metadata
     id="metadata5">
    <rdf:RDF>
      <cc:Work
         rdf:about="">
        <dc:format>image/svg+xml</dc:format>
        <dc:type
           rdf:resource="http://purl.org/dc/dcmitype/StillImage" />
        <dc:title></dc:title>
      </cc:Work>
    </rdf:RDF>
  </metadata>
  <g
     inkscape:label="Calque 1"
     inkscape:groupmode="layer"
     id="layer1"
     transform="translate(-108.02996,-151.66137)">
    <path
       style="opacity:0;fill:#fefefe;stroke-width:0.08466667"
       d="m 120.85503,179.39043 c -0.0262,-0.10478 -0.0365,-1.2859 -0.0228,-2.62473 l 0.0249,-2.43423 -0.47175,6e-5 c -0.25947,4e-5 -0.65284,-0.0616 -0.87416,-0.13705 -0.31201,-0.10631 -0.44379,-0.11572 -0.58659,-0.0419 -0.17617,0.0911 -0.17498,0.093 0.0275,0.0437 0.2046,-0.0498 0.20604,-0.0473 0.0433,0.0767 -0.0926,0.0705 -0.19476,0.11195 -0.22698,0.092 -0.0322,-0.0199 -0.0862,0.008 -0.11985,0.0629 -0.0383,0.0619 -0.0246,0.0764 0.0365,0.0387 0.18398,-0.11371 0.0978,0.056 -0.19044,0.37504 -0.1585,0.17544 -0.32042,0.29372 -0.35983,0.26285 -0.0394,-0.0309 -0.0611,-0.0386 -0.0482,-0.0171 0.0129,0.0214 -0.19665,0.26964 -0.46566,0.55156 l -0.48913,0.51259 0.46341,-0.42315 0.46341,-0.42316 -0.46341,0.508 c -0.26746,0.2932 -0.48971,0.4722 -0.52561,0.42334 -0.0394,-0.0536 -0.0627,-0.0485 -0.0635,0.014 -6.8e-4,0.0543 -0.20275,0.30192 -0.44898,0.55033 l -0.44767,0.45166 0.42651,-0.381 0.42651,-0.381 -0.41823,0.44255 c -0.23002,0.2434 -0.43464,0.42613 -0.4547,0.40607 -0.0201,-0.0201 -0.20881,0.0951 -0.41945,0.25595 -0.41805,0.31922 -0.51856,0.3461 -0.69744,0.18659 -0.10096,-0.09 -0.10194,-0.0837 -0.007,0.0423 0.14681,0.19401 0.27327,0.18693 0.55009,-0.0308 0.12515,-0.0985 0.24227,-0.16427 0.26026,-0.14627 0.0707,0.0706 -0.55367,0.42649 -0.66996,0.38186 -0.0681,-0.0261 -0.182,-0.13632 -0.25312,-0.24487 -0.15156,-0.2313 -0.0855,-0.5152 0.37512,-1.6109 0.20802,-0.49491 0.31577,-0.65617 0.4384,-0.65617 0.0894,0 0.13904,-0.0381 0.11026,-0.0847 -0.0288,-0.0466 -0.0132,-0.0847 0.0347,-0.0847 0.0479,0 0.0693,-0.0476 0.0477,-0.10584 -0.0582,-0.15679 0.0846,-0.61383 0.19179,-0.61383 0.051,0 0.12443,-0.0347 0.16324,-0.0771 0.041,-0.0448 0.0262,-0.0515 -0.0353,-0.0162 -0.0582,0.0335 -0.10583,0.0406 -0.10583,0.0158 0,-0.11751 0.37503,-0.79911 0.42328,-0.76929 0.0302,0.0187 0.0521,-0.0499 0.0486,-0.15234 -0.004,-0.12894 0.0374,-0.17909 0.13552,-0.16288 0.25776,0.0426 0.23449,-0.11672 -0.0406,-0.27765 -0.19851,-0.11615 -0.24801,-0.12486 -0.18589,-0.0327 0.0466,0.0691 0.018,0.0529 -0.0635,-0.0359 -0.20562,-0.22418 -0.18535,-0.46103 0.0711,-0.83114 0.14913,-0.21519 0.26195,-0.3001 0.35255,-0.26533 0.0881,0.0338 0.11249,0.0175 0.072,-0.0479 -0.034,-0.0551 -0.0151,-0.0991 0.0426,-0.0991 0.0571,0 0.079,-0.0248 0.0487,-0.0551 -0.0303,-0.0303 0.0109,-0.10934 0.0917,-0.17561 0.0808,-0.0663 0.0943,-0.0933 0.03,-0.0601 -0.0776,0.0401 -0.10364,0.0209 -0.0776,-0.0572 0.0216,-0.0647 0.0805,-0.11762 0.13093,-0.11762 0.0504,0 0.12347,-0.0347 0.16228,-0.0771 0.041,-0.0447 0.0263,-0.0516 -0.0349,-0.0164 -0.16767,0.0965 -0.31584,-0.30801 -0.19532,-0.53319 0.0537,-0.10033 0.1397,-0.15642 0.19112,-0.12463 0.0558,0.0345 0.0696,0.0191 0.0342,-0.0382 -0.0737,-0.11921 0.0988,-0.45991 0.2009,-0.39682 0.041,0.0254 0.10214,0.001 0.13584,-0.053 0.0383,-0.0619 0.0246,-0.0765 -0.0365,-0.0387 -0.0538,0.0332 -0.0978,0.026 -0.0978,-0.0161 0,-0.0976 0.28475,-0.35764 0.38767,-0.35409 0.0429,0.001 0.004,0.0586 -0.0863,0.127 -0.0904,0.0684 -0.12487,0.12431 -0.0766,0.12431 0.11703,0 0.38148,-0.29694 0.31958,-0.35884 -0.0268,-0.0268 0.017,-0.17597 0.0974,-0.33144 0.21885,-0.42321 0.15537,-1.15666 -0.0798,-0.92153 -0.0529,0.0529 -0.0963,0.12623 -0.0963,0.16284 0,0.0847 -0.75311,0.7389 -0.99931,0.86804 -0.17547,0.092 -0.17882,0.0882 -0.059,-0.0673 0.0699,-0.0907 0.0508,-0.0757 -0.0423,0.0334 -0.0931,0.10905 -0.29074,0.33963 -0.43913,0.5124 -0.14839,0.17277 -0.43414,0.40327 -0.635,0.51224 l -0.3652,0.19811 0.254,-0.21624 c 0.1397,-0.11893 0.2945,-0.2176 0.34399,-0.21928 0.0495,-0.002 0.2019,-0.12687 0.33867,-0.27821 l 0.24867,-0.27516 -0.25863,0.23283 c -0.14225,0.12806 -0.29072,0.23283 -0.32995,0.23283 -0.0392,0 -0.23844,0.13695 -0.44271,0.30434 -0.30312,0.24838 -0.39423,0.28539 -0.49556,0.2013 -0.0982,-0.0815 -0.12415,-0.0802 -0.12415,0.006 0,0.06 -0.0251,0.0841 -0.0557,0.0534 -0.0766,-0.0766 -0.29231,0.11318 -0.23469,0.20641 0.0426,0.0688 -0.10127,0.10747 -0.36485,0.098 -0.0577,-0.002 -0.0831,0.0316 -0.0564,0.0748 0.0267,0.0432 0.13107,0.0561 0.23193,0.0287 0.16605,-0.0451 0.1688,-0.0407 0.0291,0.0465 -0.19413,0.12122 -0.48379,-0.10849 -0.4748,-0.37653 0.006,-0.16958 0.009,-0.17013 0.0704,-0.0126 0.0605,0.15464 0.0677,0.15265 0.11606,-0.0324 0.0497,-0.18991 0.0369,-0.19554 -0.34561,-0.15304 -0.21845,0.0243 -0.47337,0.0129 -0.56651,-0.0252 -0.0931,-0.0381 -0.1202,-0.072 -0.0602,-0.0753 0.0891,-0.005 0.0891,-0.0276 0,-0.12358 -0.0791,-0.0852 -0.12631,-0.091 -0.17137,-0.0212 -0.0417,0.0647 -0.0622,0.0547 -0.0622,-0.0305 0,-0.25857 0.14612,-0.3341 0.80472,-0.41599 l 0.67436,-0.0839 -0.635,0.0282 c -0.38787,0.0172 -0.55263,0.002 -0.42334,-0.038 0.11642,-0.0364 0.35047,-0.0699 0.52011,-0.0746 0.18999,-0.005 0.32716,-0.0572 0.35718,-0.13544 0.0268,-0.0699 0.10581,-0.127 0.17556,-0.127 0.0698,0 0.31988,-0.17145 0.55582,-0.381 0.23594,-0.20955 0.39709,-0.381 0.3581,-0.381 -0.039,0 -0.20013,0.13335 -0.3581,0.29633 -0.15797,0.16299 -0.31699,0.29634 -0.35338,0.29634 -0.097,0 0.61536,-0.63531 0.85043,-0.75843 0.12564,-0.0658 0.17942,-0.0707 0.14377,-0.013 -0.0355,0.0574 -0.007,0.0731 0.0744,0.0417 0.0723,-0.0277 0.13616,-0.0844 0.14198,-0.12603 0.006,-0.0416 0.0153,-0.12157 0.0212,-0.17774 0.0121,-0.11659 0.9742,-0.91387 1.10282,-0.91387 0.0466,0 -0.14799,0.16927 -0.43231,0.37616 -0.28432,0.20689 -0.54228,0.41714 -0.57324,0.46723 -0.031,0.0501 0.18676,-0.0906 0.48381,-0.31266 0.29706,-0.22205 0.54095,-0.42278 0.542,-0.44606 0.0109,-0.24513 1.07412,-1.18621 1.33861,-1.18489 0.0489,2.6e-4 -0.0108,0.0669 -0.13256,0.14817 -0.12179,0.0812 -0.37576,0.25095 -0.56438,0.37712 -0.18861,0.12617 -0.37063,0.27421 -0.40447,0.32897 -0.0586,0.0948 0.21181,-0.0794 0.76697,-0.49412 0.70225,-0.52463 0.73621,-0.46712 -0.36994,-0.62635 -0.99061,-0.1426 -1.57346,-0.3527 -1.803,-0.64994 -0.10116,-0.13099 -0.0964,-0.13219 0.0577,-0.0147 0.48653,0.37079 1.10221,0.53306 2.66554,0.70254 0.7706,0.0835 0.0212,-0.0931 -0.93711,-0.22088 -1.05384,-0.14053 -1.5573,-0.33611 -1.86182,-0.72328 -0.0973,-0.12374 -0.15284,-0.17736 -0.12335,-0.11915 0.0751,0.14823 0.005,0.13268 -0.31417,-0.0701 -0.24007,-0.15232 -0.24885,-0.16898 -0.0656,-0.12431 0.14402,0.0351 0.10704,-0.006 -0.11569,-0.12752 -0.24526,-0.1342 -0.35142,-0.15485 -0.42333,-0.0824 -0.0718,0.0724 -0.0602,0.0831 0.046,0.0427 0.10456,-0.0398 0.13566,-0.0132 0.11798,0.10081 -0.0132,0.0852 -0.008,0.10723 0.0124,0.049 0.02,-0.0582 0.0705,-0.10583 0.11219,-0.10583 0.0417,0 0.0551,0.0539 0.0298,0.11975 -0.0253,0.0659 0.0738,0.39924 0.22011,0.74083 0.35736,0.83418 0.38404,0.91213 0.25603,0.74809 -0.0881,-0.11289 -0.0952,-0.11289 -0.0644,0 0.0191,0.0699 0.0696,0.12881 0.11228,0.13102 0.14974,0.008 0.67079,0.37634 0.53248,0.37666 -0.0758,1.7e-4 -0.18523,-0.0568 -0.2432,-0.12668 -0.058,-0.0699 -0.14398,-0.127 -0.19112,-0.127 -0.0472,0 0.0112,0.0762 0.12955,0.16933 0.1184,0.0931 0.25689,0.16933 0.30775,0.16933 0.0509,0 0.0925,0.0381 0.0925,0.0847 0,0.0466 -0.0563,0.0847 -0.12506,0.0847 -0.23399,0 -1.2312,-0.41594 -1.51356,-0.63131 -0.15471,-0.118 -0.30109,-0.19476 -0.32527,-0.17058 -0.0242,0.0242 -0.097,-0.0236 -0.16187,-0.10623 -0.10928,-0.13923 -0.10552,-0.14127 0.0514,-0.0279 0.16024,0.11579 0.16186,0.11416 0.0302,-0.0302 -0.0893,-0.0979 -0.27622,-0.15804 -0.52214,-0.16782 -0.28057,-0.0112 -0.49666,-0.0927 -0.80754,-0.30489 -0.23345,-0.15931 -0.40744,-0.31719 -0.38663,-0.35086 0.0208,-0.0337 -0.002,-0.0855 -0.0496,-0.11523 -0.0481,-0.0297 -0.0655,-0.0895 -0.0387,-0.13285 0.0268,-0.0434 0.0115,-0.0788 -0.0339,-0.0788 -0.0454,0 -0.0978,0.0455 -0.11627,0.10099 -0.0185,0.0556 -0.097,-0.0572 -0.1743,-0.25047 -0.15423,-0.38547 -0.2112,-1.71646 -0.11138,-2.60219 0.13277,-1.17808 0.14889,-1.2589 0.2266,-1.13613 0.0618,0.0976 0.0763,0.0924 0.0773,-0.028 7.5e-4,-0.0853 -0.0616,-0.14804 -0.14687,-0.14785 -0.21373,4.2e-4 -0.71624,0.32581 -0.65536,0.42432 0.0283,0.0458 -0.0174,0.0839 -0.10164,0.0847 -0.11057,9.4e-4 -0.12317,0.0203 -0.0453,0.0697 0.0813,0.0516 0.0608,0.10857 -0.0832,0.23154 -0.18952,0.1618 -0.19007,0.16175 -0.0696,-0.006 0.10329,-0.14401 0.10344,-0.15324 9.8e-4,-0.0617 -0.0663,0.0592 -0.12157,0.19239 -0.12291,0.296 -0.001,0.1036 -0.0469,0.18852 -0.10122,0.18871 -0.0543,1.6e-4 -0.13053,0.035 -0.16934,0.0774 -0.0417,0.0455 -0.0227,0.0493 0.0463,0.009 0.0799,-0.0463 0.10443,-0.0305 0.0776,0.0499 -0.0216,0.0647 -0.0805,0.11762 -0.13093,0.11762 -0.0504,0 -0.12348,0.0347 -0.16228,0.0771 -0.0416,0.0454 -0.0233,0.0497 0.0443,0.0106 0.089,-0.0515 0.10118,-0.0212 0.054,0.13459 -0.0335,0.11061 -0.10033,0.2392 -0.14849,0.28577 -0.0597,0.0578 -0.0655,0.0443 -0.0183,-0.0423 0.0458,-0.0839 0.008,-0.0733 -0.11122,0.0312 -0.0993,0.087 -0.17753,0.18229 -0.17386,0.21167 0.004,0.0294 -7.8e-4,0.0725 -0.01,0.0958 -0.009,0.0233 -0.0273,0.15663 -0.0405,0.29633 -0.0383,0.40713 -0.22441,1.25409 -0.31904,1.45216 -0.0479,0.10018 -0.0665,0.23353 -0.0415,0.29633 0.025,0.0628 0.0521,0.0189 0.0601,-0.0975 0.008,-0.11641 0.066,0.0468 0.12886,0.36259 0.0628,0.31584 0.13793,0.65874 0.16692,0.762 0.0414,0.14758 0.0337,0.16058 -0.0362,0.0607 -0.0489,-0.0699 -0.0895,-0.0919 -0.0902,-0.049 -7.1e-4,0.0429 0.0654,0.15422 0.14687,0.24738 0.0875,0.10001 0.0995,0.14073 0.0292,0.0994 -0.0802,-0.0472 -0.0993,-0.0382 -0.0585,0.0278 0.0332,0.0538 0.11585,0.0977 0.18361,0.0977 0.15946,0 0.63493,0.52083 0.59056,0.6469 -0.0192,0.0544 0.12962,0.14238 0.3408,0.20151 0.40362,0.11301 0.47396,0.20657 0.20766,0.27621 -0.40965,0.10713 -1.14263,-0.18292 -1.82254,-0.7212 -0.40005,-0.31671 -0.40509,-0.31839 -0.0917,-0.0306 0.18238,0.1675 0.30632,0.30453 0.27541,0.30453 -0.0309,0 -0.21057,-0.13947 -0.39926,-0.30993 -0.25291,-0.2285 -0.31416,-0.32827 -0.23308,-0.37971 0.0812,-0.0515 0.0698,-0.0701 -0.0432,-0.0711 -0.0868,-7.6e-4 -0.12897,-0.0405 -0.0973,-0.0917 0.0307,-0.0497 -0.0237,-0.11118 -0.12104,-0.13662 -0.20787,-0.0544 -0.46649,-0.44723 -0.70157,-1.06574 -0.14189,-0.37333 -0.17331,-0.70243 -0.19991,-2.09394 -0.0174,-0.90805 -5.2e-4,-1.8119 0.0374,-2.00855 0.0438,-0.2269 0.039,-0.33901 -0.0131,-0.30683 -0.21165,0.13082 0.15135,-1.6336 0.49681,-2.41473 0.11082,-0.2506 0.20417,-0.51756 0.20745,-0.59326 0.005,-0.10569 0.0228,-0.0983 0.0787,0.0317 0.0568,0.13222 0.0741,0.13885 0.0787,0.0302 0.003,-0.0765 0.0625,-0.16079 0.13152,-0.18729 0.0691,-0.0265 0.10566,-0.10009 0.0813,-0.16354 -0.0596,-0.15541 0.27886,-0.93081 0.37925,-0.86876 0.0437,0.027 0.10707,0.005 0.14077,-0.05 0.0383,-0.0619 0.0246,-0.0764 -0.0365,-0.0387 -0.16217,0.10023 -0.11101,-0.0267 0.13508,-0.3351 0.12806,-0.16049 0.27455,-0.29181 0.32554,-0.29181 0.051,0 0.1653,-0.0857 0.254,-0.1905 l 0.16129,-0.1905 -0.2036,0.16933 -0.20361,0.16934 0.14641,-0.2276 c 0.18453,-0.28684 0.70199,-0.68653 0.80578,-0.62238 0.0431,0.0266 0.10264,0.009 0.13236,-0.039 0.0297,-0.0481 0.0954,-0.0619 0.14593,-0.0306 0.0567,0.035 0.0674,0.0171 0.0279,-0.0467 -0.0352,-0.0569 -0.1167,-0.0833 -0.18113,-0.0586 -0.0644,0.0247 -0.15716,-0.0298 -0.20608,-0.12123 -0.11768,-0.21989 0.014,-0.46309 0.34287,-0.63314 0.13832,-0.0715 0.2509,-0.1767 0.25019,-0.23371 -8.3e-4,-0.0662 -0.0309,-0.0578 -0.0834,0.0233 -0.0451,0.0699 -0.0827,0.0861 -0.0834,0.0362 -0.002,-0.12059 0.58835,-0.50214 0.97278,-0.62901 0.26682,-0.0881 0.33054,-0.0809 0.49173,0.0553 l 0.18519,0.15648 -0.16419,-0.19371 c -0.18727,-0.22093 -0.5241,-0.19921 -0.89414,0.0576 -0.37252,0.25859 -0.4734,0.28833 -0.21167,0.0624 0.1397,-0.12059 0.40265,-0.26114 0.58433,-0.31234 0.30946,-0.0872 0.34473,-0.078 0.55863,0.14646 0.33886,0.35555 0.60529,1.05647 0.54879,1.44376 -0.0573,0.39311 0.0647,0.63349 0.23089,0.45483 0.0899,-0.0966 0.0886,-0.10571 -0.007,-0.051 -0.08,0.0456 -0.10336,0.0295 -0.0741,-0.0511 0.0235,-0.0647 0.0842,-0.10855 0.13494,-0.0975 0.0507,0.0111 0.0725,-0.0312 0.0484,-0.094 -0.0709,-0.18479 0.37319,-0.64504 0.62891,-0.65179 0.20198,-0.005 0.20778,-0.0135 0.056,-0.0787 -0.15249,-0.0655 -0.14721,-0.0734 0.0531,-0.0787 0.22812,-0.006 0.45462,-0.18964 0.35587,-0.28838 -0.18498,-0.18499 1.32374,-1.02148 1.80943,-1.00322 0.15358,0.006 0.27923,-0.0247 0.27923,-0.0678 0,-0.043 0.14288,-0.10103 0.3175,-0.12887 0.17463,-0.0279 0.48895,-0.0899 0.6985,-0.13788 0.66631,-0.15257 1.62284,-0.16096 2.56905,-0.0225 0.50493,0.0739 0.99076,0.1153 1.07962,0.0921 0.0889,-0.0232 0.14022,-0.008 0.11412,0.0345 -0.0261,0.0422 0.0119,0.0768 0.0845,0.0768 0.0726,0 0.132,0.0381 0.132,0.0847 0,0.0466 0.0286,0.0785 0.0635,0.071 0.0349,-0.008 0.17075,0.0306 0.30184,0.0847 0.33037,0.1363 0.41136,0.1107 0.10032,-0.0317 -0.1397,-0.064 -0.1946,-0.11802 -0.12202,-0.12012 0.13687,-0.004 1.07381,0.52836 1.22269,0.69466 0.0466,0.052 -0.0201,0.0304 -0.14817,-0.0479 -0.12805,-0.0784 -0.3376,-0.20667 -0.46566,-0.28507 -0.34345,-0.21024 -0.12703,-0.0163 0.35983,0.32243 0.5934,0.41289 0.60678,0.41921 0.60678,0.28675 0,-0.0652 -0.0222,-0.11617 -0.0494,-0.11325 -0.18366,0.0198 -0.2254,-0.0769 -0.24771,-0.57369 -0.0138,-0.30743 0.006,-0.53967 0.0443,-0.51608 0.0382,0.0236 0.0694,-0.1213 0.0694,-0.32196 0,-0.20065 -0.0286,-0.34717 -0.0635,-0.32558 -0.0349,0.0216 -0.0635,0.003 -0.0635,-0.0405 0,-0.12738 0.27625,-0.16687 1.13968,-0.16292 0.63906,0.003 0.82889,0.032 0.9094,0.13937 0.0853,0.11375 0.0826,0.11858 -0.0169,0.0299 -0.0653,-0.0582 -0.17773,-0.10497 -0.24991,-0.10391 -0.0722,0.001 -0.008,0.0627 0.14275,0.13701 0.15069,0.0743 0.25522,0.16541 0.2323,0.2025 -0.0229,0.0371 0.006,0.0868 0.0647,0.11056 0.0762,0.0309 0.0797,0.063 0.0125,0.11306 -0.0516,0.0385 -0.0897,0.19377 -0.0847,0.34512 0.005,0.15134 -0.0257,0.27517 -0.0684,0.27517 -0.0427,-10e-6 -0.0555,0.0221 -0.0284,0.0492 0.0271,0.0271 0.13818,-8e-5 0.24694,-0.0603 0.10876,-0.0602 0.22633,-0.10142 0.26125,-0.0915 0.0349,0.01 0.0635,-0.0201 0.0635,-0.0667 0,-0.0466 0.15105,-0.0847 0.33566,-0.0847 0.33061,0 0.95804,0.28202 1.31534,0.59122 0.0931,0.0806 0.30268,0.20874 0.46567,0.28476 l 0.29633,0.13823 -0.19988,-0.16844 c -0.10993,-0.0926 -0.1642,-0.16844 -0.12059,-0.16844 0.12236,0 0.48381,0.41522 0.4184,0.48063 -0.0808,0.0808 0.37009,0.53525 0.53174,0.53595 0.13085,5.8e-4 0.44662,0.39812 0.56541,0.71181 0.0461,0.12176 0.0335,0.14482 -0.0508,0.0927 -0.0752,-0.0464 -0.0919,-0.0366 -0.0509,0.0298 0.0337,0.0545 0.0951,0.0782 0.13647,0.0526 0.0414,-0.0256 0.13713,0.0733 0.21281,0.2196 0.10142,0.19613 0.10794,0.25086 0.0248,0.20816 -0.062,-0.0319 -0.0506,-0.007 0.0255,0.0563 0.0761,0.0628 0.15452,0.18947 0.17436,0.28144 0.0198,0.092 0.0833,0.15709 0.14094,0.14471 0.20096,-0.0432 0.64548,1.2265 0.81939,2.3404 0.0344,0.22045 0.0262,0.35097 -0.0204,0.32221 -0.0476,-0.0294 -0.0497,0.17336 -0.005,0.51845 0.0681,0.52996 0.0254,2.96502 -0.0618,3.53012 -0.037,0.23962 -0.0347,0.24202 0.0409,0.0423 0.0616,-0.16276 0.0686,-0.12363 0.0302,0.16933 -0.13585,1.03638 -0.6135,2.25499 -0.93122,2.37578 -0.1119,0.0426 -0.17656,0.12211 -0.15176,0.18674 0.0238,0.0619 -0.0627,0.20603 -0.19212,0.32021 l -0.23533,0.2076 0.16933,-0.21574 c 0.14266,-0.18176 0.13266,-0.17822 -0.0635,0.0225 -0.12806,0.13104 -0.23342,0.20907 -0.23413,0.17341 -6.8e-4,-0.0357 -0.0293,-0.026 -0.0635,0.0216 -0.1303,0.18097 -0.52255,0.29244 -0.7392,0.21007 -0.1166,-0.0443 -0.212,-0.10285 -0.212,-0.13003 0,-0.0272 0.0381,-0.0259 0.0847,0.003 0.0466,0.0288 0.0847,0.012 0.0847,-0.0373 0,-0.0493 0.0529,-0.0897 0.11762,-0.0897 0.0647,0 0.20757,-0.0791 0.3175,-0.17578 0.10994,-0.0967 0.14731,-0.14853 0.0831,-0.11522 -0.0776,0.0403 -0.10366,0.0211 -0.0776,-0.0571 0.0216,-0.0647 0.0805,-0.11761 0.13093,-0.11761 0.0505,0 0.12347,-0.0347 0.16228,-0.0771 0.0417,-0.0455 0.0227,-0.0494 -0.0463,-0.009 -0.0811,0.047 -0.10223,0.0317 -0.0691,-0.0499 0.34044,-0.83933 0.4371,-1.35056 0.43848,-2.31895 l 0.001,-1.016 -0.3577,-0.74451 c -0.19673,-0.40948 -0.32099,-0.72182 -0.27613,-0.6941 0.0456,0.0282 0.0593,-0.008 0.0311,-0.081 -0.0277,-0.0723 -0.0908,-0.1314 -0.14014,-0.1314 -0.0493,0 -0.0647,-0.0251 -0.034,-0.0557 0.069,-0.069 -0.1,-0.28296 -0.22337,-0.28296 -0.0498,0 -0.0165,0.0559 0.0739,0.12431 0.0904,0.0684 0.12262,0.12552 0.0716,0.127 -0.051,0.001 -0.15576,-0.067 -0.23283,-0.15214 -0.15459,-0.17082 -0.18829,-0.30826 -0.0555,-0.22617 0.13782,0.0852 0.0965,-0.012 -0.0586,-0.1378 -0.12333,-0.10004 -0.13421,-0.0985 -0.0782,0.0108 0.0358,0.0698 -0.0157,0.035 -0.11445,-0.0775 -0.0987,-0.11245 -0.16014,-0.25487 -0.1365,-0.31648 0.0237,-0.0616 0.001,-0.10297 -0.0492,-0.0919 -0.0507,0.0111 -0.11143,-0.0328 -0.13494,-0.0975 -0.0295,-0.0812 -0.007,-0.0964 0.0741,-0.049 0.28097,0.16517 -0.25649,-0.33821 -0.60145,-0.56332 -0.2331,-0.15211 -0.29195,-0.17404 -0.15071,-0.0562 0.12742,0.10636 0.33697,0.2819 0.46566,0.39009 0.12869,0.10819 0.049,0.075 -0.17703,-0.0736 -0.22606,-0.1487 -0.487,-0.39915 -0.57987,-0.55655 -0.0929,-0.1574 -0.21271,-0.28559 -0.26632,-0.28488 -0.0601,8e-4 -0.0533,0.0293 0.0179,0.0744 0.0955,0.0605 0.0959,0.0796 0.002,0.11084 -0.0622,0.0207 -0.11939,0.16164 -0.127,0.31311 -0.008,0.16757 -0.10048,0.36583 -0.2351,0.50634 -0.12168,0.12701 -0.22124,0.30261 -0.22124,0.39022 0,0.0876 -0.0595,0.39649 -0.1322,0.68639 -0.10002,0.39885 -0.11289,0.63327 -0.0529,0.96342 0.0576,0.31685 0.049,0.53332 -0.0315,0.79063 -0.0609,0.19489 -0.11333,0.28766 -0.11645,0.20617 -0.003,-0.0815 -0.0426,-0.14817 -0.0877,-0.14817 -0.0451,0 -0.0586,0.061 -0.03,0.13554 0.0286,0.0745 0.001,0.16692 -0.0608,0.20525 -0.0621,0.0384 -0.11916,0.23732 -0.12697,0.44255 -0.008,0.20507 -0.0541,0.44408 -0.10277,0.53113 -0.0583,0.10415 -0.0609,0.23107 -0.008,0.37108 0.0585,0.15393 0.0433,0.31124 -0.055,0.56862 -0.12328,0.32282 -0.12372,0.38495 -0.005,0.66983 0.096,0.22979 0.1312,0.61385 0.1312,1.43191 0,1.07206 -0.008,1.12577 -0.2042,1.30974 -0.1906,0.17907 -0.23428,0.18548 -0.65616,0.0963 -0.24858,-0.0525 -0.66152,-0.13075 -0.91764,-0.1738 l -0.46566,-0.0783 0.55033,0.0445 c 0.30268,0.0245 0.71517,0.0854 0.91663,0.13541 0.31875,0.0791 0.38469,0.0708 0.508,-0.0643 0.13307,-0.14575 0.13274,-0.14846 -0.005,-0.0446 -0.0928,0.0699 -0.23331,0.0885 -0.381,0.0507 -0.25555,-0.0655 -1.68055,-0.30443 -1.88493,-0.316 -0.0699,-0.004 -0.15499,-0.049 -0.1892,-0.10022 -0.0342,-0.0512 -0.0601,0.0403 -0.0576,0.20331 0.004,0.24734 0.0174,0.26834 0.0817,0.127 0.0499,-0.10963 0.0553,-0.0201 0.0152,0.254 -0.12223,0.8365 -0.0669,1.40696 0.18377,1.89483 0.12872,0.25052 0.21539,0.5268 0.1926,0.61395 -0.0228,0.0871 -0.01,0.13879 0.0292,0.11477 0.0898,-0.0555 0.19615,0.26732 0.12567,0.38136 -0.029,0.047 -0.0125,0.0854 0.0369,0.0854 0.0493,0 0.0897,0.0952 0.0897,0.21167 0,0.11641 -0.0329,0.21166 -0.0731,0.21166 -0.0848,0 -0.0718,0.22967 0.0252,0.44592 0.0369,0.0823 0.049,0.24419 0.0269,0.35983 -0.0221,0.11564 -0.007,0.21025 0.0327,0.21025 0.0401,0 0.0756,0.0857 0.0789,0.1905 0.006,0.18177 0.009,0.18274 0.0787,0.0212 l 0.0728,-0.16933 0.012,0.16933 c 0.007,0.0931 0.0337,0.32173 0.0603,0.508 0.0811,0.56817 0.0714,0.75921 -0.0392,0.77145 -0.0582,0.006 -0.19752,0.0165 -0.30958,0.0223 -0.15976,0.008 -0.19422,0.047 -0.15963,0.17924 0.0243,0.0928 -0.0786,0.69283 -0.22865,1.3335 -0.39483,1.68619 -0.45326,1.88946 -0.5146,1.79021 -0.0482,-0.078 -0.14321,0.0514 -0.20898,0.2848 -0.01,0.0349 -0.0267,0.0921 -0.0375,0.127 -0.0108,0.0349 -0.0145,0.15875 -0.008,0.27517 0.0136,0.25588 -0.37006,1.3322 -0.54292,1.52321 -0.10234,0.11309 -0.76336,0.23555 -0.82254,0.15238 -0.01,-0.0135 -0.0404,-0.99614 -0.0685,-2.18359 l -0.051,-2.159 0.005,2.18024 c 0.003,1.19913 -0.004,2.1802 -0.0146,2.18016 -0.0108,-4e-5 -0.041,-0.0858 -0.0672,-0.19057 z m 1.28761,-0.92604 c -0.027,-0.0675 -0.0471,-0.0475 -0.0512,0.0511 -0.004,0.0893 0.0163,0.13926 0.0445,0.11113 0.0281,-0.0281 0.0311,-0.10116 0.007,-0.16228 z m -7.17708,-1.16946 c -0.003,-0.0837 -0.0294,-0.0693 -0.0774,0.0423 -0.10002,0.23276 -0.10002,0.36644 0,0.21167 0.0451,-0.0699 0.08,-0.18415 0.0774,-0.254 z m 7.90919,-0.97367 c 0.0354,-0.23063 0.0261,-0.29815 -0.0291,-0.21166 -0.0445,0.0699 -0.0815,0.23812 -0.0823,0.37394 -0.002,0.3275 0.0472,0.25624 0.11132,-0.16228 z m -1.91661,-1.45889 c -0.0215,-0.0824 -0.0404,-0.0355 -0.0422,0.10423 -0.002,0.1397 0.0158,0.2071 0.039,0.14977 0.0232,-0.0573 0.0246,-0.17162 0.003,-0.254 z m -2.47167,-0.10744 c 0.0843,-0.0931 0.1342,-0.16933 0.11091,-0.16933 -0.0233,0 -0.11129,0.0762 -0.19558,0.16933 -0.0843,0.0931 -0.13419,0.16933 -0.11091,0.16933 0.0233,0 0.1113,-0.0762 0.19558,-0.16933 z m 2.58233,-0.46567 c 0,-0.0849 -0.0772,-0.12317 -0.23283,-0.11547 -0.19963,0.01 -0.20567,0.0168 -0.0423,0.0482 0.10477,0.0202 0.1905,0.0721 0.1905,0.11547 0,0.0433 0.0191,0.0788 0.0423,0.0788 0.0233,0 0.0423,-0.0572 0.0423,-0.127 z m 2.25741,-0.14816 c -0.0235,-0.0582 -0.0427,-0.0106 -0.0427,0.10583 0,0.11642 0.0192,0.16404 0.0427,0.10583 0.0235,-0.0582 0.0235,-0.15346 0,-0.21166 z m 0.59443,-0.50271 c -0.027,-0.0675 -0.0471,-0.0475 -0.0512,0.0512 -0.004,0.0892 0.0163,0.13926 0.0445,0.11113 0.0281,-0.0281 0.0311,-0.10116 0.007,-0.16228 z m -0.0871,-0.53081 c -0.0276,-0.0719 -0.099,-0.12764 -0.15863,-0.12397 -0.085,0.005 -0.0855,0.0159 -0.003,0.0494 0.0582,0.0235 0.10584,0.10303 0.10584,0.17676 0,0.0737 0.0238,0.1103 0.0528,0.0813 0.029,-0.029 0.0302,-0.11159 0.003,-0.18345 z m -7.45005,-0.40582 c -0.0235,-0.0582 -0.0427,-0.0106 -0.0427,0.10584 0,0.11641 0.0192,0.16404 0.0427,0.10583 0.0235,-0.0582 0.0235,-0.15346 0,-0.21167 z m 0.45193,-0.53512 c 0,-0.0233 -0.0762,-0.002 -0.16933,0.0483 -0.0931,0.0498 -0.16934,0.10967 -0.16934,0.13296 0,0.0233 0.0762,0.002 0.16934,-0.0483 0.0931,-0.0498 0.16933,-0.10968 0.16933,-0.13296 z m -3.1556,-1.6962 c -0.0281,-0.0281 -0.10116,-0.0311 -0.16227,-0.007 -0.0675,0.027 -0.0475,0.0471 0.0511,0.0512 0.0893,0.004 0.13926,-0.0163 0.11112,-0.0445 z m 3.92875,-1.59984 c 0.1804,-0.16299 0.30394,-0.29634 0.27452,-0.29634 -0.0294,0 -0.20108,0.13335 -0.38149,0.29634 -0.1804,0.16298 -0.30393,0.29633 -0.27452,0.29633 0.0294,0 0.20109,-0.13335 0.38149,-0.29633 z m 5.17878,-0.46567 c 0.0311,-0.30061 0.0232,-0.39064 -0.0224,-0.254 -0.07,0.20977 -0.11599,0.82278 -0.0566,0.75494 0.017,-0.0194 0.0526,-0.24482 0.0791,-0.50094 z m -4.35755,0.0478 c -0.0108,-0.15997 -0.0437,-0.27595 -0.0732,-0.25772 -0.0567,0.0351 -0.003,0.54859 0.0574,0.54859 0.0195,0 0.0266,-0.13089 0.0158,-0.29087 z m 7.03771,-3.33172 c -0.0858,-0.13308 -0.0895,-0.13225 -0.0448,0.01 0.0268,0.0853 0.057,0.6568 0.0672,1.27 l 0.0185,1.11491 0.0263,-1.12492 c 0.0169,-0.72123 -0.007,-1.17699 -0.0672,-1.27 z m -14.77014,1.84504 c -0.0286,-0.0463 -0.13565,-0.12467 -0.23783,-0.17411 -0.17602,-0.0852 -0.17527,-0.0808 0.0141,0.0842 0.21572,0.18791 0.30697,0.22457 0.22374,0.0899 z m -1.89478,-0.95437 c -0.0836,-0.083 -0.0933,-0.0733 -0.0474,0.0474 0.0318,0.0835 0.0791,0.13049 0.1052,0.10442 0.0261,-0.0261 6e-5,-0.0944 -0.0578,-0.15182 z m 6.228,-1.00929 c -0.027,-0.0675 -0.0471,-0.0475 -0.0512,0.0512 -0.004,0.0892 0.0163,0.13926 0.0445,0.11113 0.0281,-0.0281 0.0311,-0.10116 0.007,-0.16228 z m -6.73932,-0.16234 c -0.0446,-0.11153 -0.0835,-0.15828 -0.0865,-0.10388 -0.007,0.13213 0.0915,0.38282 0.13391,0.34037 0.0185,-0.0185 -0.003,-0.12495 -0.0474,-0.23649 z m 1.57465,-0.34566 c -0.027,-0.0675 -0.0471,-0.0475 -0.0512,0.0511 -0.004,0.0893 0.0163,0.13926 0.0445,0.11113 0.0281,-0.0281 0.0311,-0.10116 0.007,-0.16228 z m 2.20475,-0.93663 c -0.0188,-0.15134 -0.0341,-0.0275 -0.0341,0.27517 0,0.30268 0.0154,0.42651 0.0341,0.27517 0.0188,-0.15135 0.0188,-0.399 0,-0.55034 z m 17.95698,-0.35983 c -0.005,-0.92814 -0.0483,-0.79012 -0.0908,0.28771 -0.0173,0.43764 -0.003,0.72339 0.0317,0.635 0.0347,-0.0884 0.0613,-0.50361 0.0592,-0.92271 z m -20.03,0.76456 c 0.022,-0.11501 0.007,-0.18896 -0.0325,-0.16433 -0.0701,0.0434 -0.10548,0.37344 -0.04,0.37344 0.0178,0 0.0504,-0.0941 0.0724,-0.20911 z m 15.53161,-0.0608 c -0.027,-0.0675 -0.0471,-0.0475 -0.0511,0.0511 -0.004,0.0893 0.0163,0.13926 0.0445,0.11113 0.0281,-0.0281 0.0311,-0.10116 0.007,-0.16228 z m 5.50333,-0.16933 c -0.027,-0.0675 -0.0471,-0.0475 -0.0511,0.0511 -0.004,0.0893 0.0163,0.13926 0.0445,0.11113 0.0281,-0.0281 0.0311,-0.10116 0.007,-0.16228 z m -18.9398,-1.20474 c 0.002,-0.43792 -0.0498,-0.36325 -0.10532,0.15253 -0.0272,0.25285 -0.0156,0.36802 0.0298,0.29633 0.0408,-0.0645 0.0748,-0.26647 0.0755,-0.44886 z m 0.0611,-1.08655 c -0.0202,-0.10478 -0.0367,-0.019 -0.0367,0.1905 0,0.20955 0.0165,0.29527 0.0367,0.1905 0.0202,-0.10478 0.0202,-0.27623 0,-0.381 z m 13.88511,-0.47773 c -0.009,-0.27439 -0.0414,-0.48441 -0.0709,-0.4667 -0.0839,0.0503 -0.13708,0.54226 -0.0586,0.54226 0.0385,0 0.07,0.0952 0.07,0.21167 0,0.11641 0.0173,0.21166 0.0384,0.21166 0.0211,0 0.0306,-0.2245 0.0212,-0.49889 z m -17.86636,-0.44832 c -0.027,-0.0675 -0.0471,-0.0475 -0.0512,0.0512 -0.004,0.0892 0.0163,0.13926 0.0445,0.11112 0.0281,-0.0281 0.0311,-0.10116 0.007,-0.16228 z m 17.95819,-0.41903 c -0.0211,-0.0634 -0.0595,-0.025 -0.0894,0.0895 -0.0368,0.14083 -0.0258,0.17388 0.037,0.11105 0.0492,-0.0492 0.0728,-0.13943 0.0524,-0.20051 z m 0.074,-0.60226 c -0.0235,-0.0582 -0.0427,-0.0106 -0.0427,0.10584 0,0.11641 0.0192,0.16404 0.0427,0.10583 0.0235,-0.0582 0.0235,-0.15346 0,-0.21167 z m -17.76884,-0.20267 c -0.0247,-0.1164 -0.046,-0.0951 -0.0821,0.0821 -0.0315,0.1545 -0.0197,0.21018 0.0333,0.15716 0.0452,-0.0452 0.0671,-0.15281 0.0488,-0.23925 z m 18.01714,-0.13599 0.16129,-0.1905 -0.21167,0.16843 c -0.11641,0.0926 -0.22754,0.17836 -0.24694,0.1905 -0.0194,0.0121 0.003,0.0221 0.0504,0.0221 0.0471,0 0.15823,-0.0857 0.24694,-0.1905 z m 4.69314,-0.82608 c -0.0439,-0.18697 -0.0727,-0.22823 -0.0782,-0.11218 -0.009,0.18448 0.0749,0.48073 0.12231,0.43333 0.014,-0.014 -0.006,-0.15848 -0.0441,-0.32115 z m -22.37053,-0.044 c -0.0261,-0.0261 -0.0734,0.0209 -0.10521,0.10443 -0.046,0.12066 -0.0362,0.13039 0.0474,0.0474 0.0579,-0.0574 0.0839,-0.12575 0.0578,-0.15182 z m 22.138,-1.05945 c -0.0248,-0.095 -0.0641,-0.15377 -0.0872,-0.13065 -0.0458,0.0458 0.0351,0.30334 0.0953,0.30334 0.0204,0 0.0167,-0.0777 -0.008,-0.17269 z m -20.85636,-1.129 c -0.0207,-0.02 -0.10979,0.0646 -0.19799,0.18815 l -0.16036,0.22454 0.19799,-0.18814 c 0.1089,-0.10349 0.18106,-0.20453 0.16036,-0.22455 z m 0.85834,-0.86887 c 0.0743,-0.0915 0.0151,-0.071 -0.15513,0.0536 -0.15134,0.11079 -0.27517,0.21466 -0.27517,0.23082 0,0.0643 0.31755,-0.14562 0.4303,-0.28446 z m 0.3317,-0.48738 c 0,-0.0183 -0.0591,-0.056 -0.1314,-0.0837 -0.0753,-0.0289 -0.10933,-0.0147 -0.0797,0.0333 0.0497,0.0805 0.21107,0.11899 0.21107,0.0504 z m 18.2452,-0.13658 c -0.0846,-0.0934 -0.17339,-0.15017 -0.19744,-0.12612 -0.0241,0.024 0.0297,0.0993 0.11942,0.16716 0.22895,0.17321 0.25805,0.1579 0.078,-0.041 z m -15.11253,-0.2171 c 0,-0.0233 -0.0762,-0.002 -0.16934,0.0483 -0.0931,0.0498 -0.16933,0.10967 -0.16933,0.13296 0,0.0233 0.0762,0.002 0.16933,-0.0483 0.0931,-0.0498 0.16934,-0.10968 0.16934,-0.13296 z m -3.00627,-0.12007 c 0.0297,-0.048 -0.004,-0.0622 -0.0797,-0.0333 -0.14668,0.0563 -0.17351,0.11697 -0.0517,0.11697 0.0438,0 0.10295,-0.0377 0.1314,-0.0837 z m 5.08027,-1.34186 c -0.0391,-0.0391 -1.30918,0.5905 -1.36123,0.67471 -0.0224,0.0362 0.28132,-0.0942 0.67491,-0.28978 0.39359,-0.19559 0.70243,-0.36882 0.68632,-0.38493 z m 7.29921,-0.11863 c -0.0203,-0.10531 -0.0376,-0.0391 -0.0385,0.14718 -9.4e-4,0.18627 0.0156,0.27244 0.0368,0.19149 0.0212,-0.081 0.022,-0.23335 0.002,-0.33867 z m -4.1813,21.58257 c -0.148,-0.0547 -0.2996,-0.13034 -0.33689,-0.16816 -0.0373,-0.0378 0.0457,-0.0235 0.18442,0.0318 0.13872,0.0553 0.48082,0.1287 0.76022,0.16303 l 0.508,0.0624 -0.42333,0.005 c -0.23283,0.003 -0.54442,-0.0396 -0.69242,-0.0942 z m -8.66325,-6.52238 c -0.20955,-0.0571 -0.4572,-0.15271 -0.55033,-0.21235 l -0.16933,-0.10844 0.16933,0.0606 c 0.46684,0.16715 0.98231,0.27415 1.15814,0.2404 0.17972,-0.0345 0.18205,-0.0308 0.0272,0.0427 -0.21076,0.10014 -0.17939,0.10127 -0.635,-0.023 z m 0.381,-0.47734 c -0.11165,-0.048 -0.12607,-0.0743 -0.0423,-0.0774 0.0698,-0.003 0.18415,0.0323 0.254,0.0774 0.15477,0.10002 0.0211,0.10002 -0.21167,0 z m 4.10634,-0.4735 c -0.30269,-0.11618 -0.60749,-0.27415 -0.67734,-0.35106 -0.1151,-0.12673 -0.11324,-0.12948 0.0199,-0.0294 0.0808,0.0608 0.46177,0.22009 0.84667,0.35406 0.3849,0.13398 0.62362,0.24224 0.53048,0.24059 -0.0931,-0.002 -0.41698,-0.0981 -0.71966,-0.21423 z m 13.63133,-0.37317 c 0.0699,-0.0451 0.1651,-0.0821 0.21167,-0.0821 0.0466,0 0.0275,0.0369 -0.0423,0.0821 -0.0699,0.0451 -0.1651,0.0821 -0.21166,0.0821 -0.0466,0 -0.0275,-0.0369 0.0423,-0.0821 z m -15.8869,-0.68166 c -0.19282,-0.0954 -0.42142,-0.25297 -0.508,-0.35005 -0.0921,-0.10322 0.0112,-0.0584 0.24862,0.10797 0.30755,0.21548 0.4955,0.28501 0.77472,0.28662 0.20277,0.001 0.35117,0.0307 0.32978,0.0656 -0.0727,0.11876 -0.49346,0.0639 -0.84512,-0.11016 z m -1.58403,-4.63174 c -0.0252,-0.0408 0.0759,-0.14375 0.2247,-0.22876 0.14881,-0.085 0.21341,-0.10153 0.14356,-0.0367 -0.0699,0.0648 -0.17096,0.16777 -0.2247,0.22876 -0.0537,0.061 -0.11834,0.0775 -0.14356,0.0367 z m 17.37986,-7.1961 -0.20526,-0.23283 0.254,0.21167 c 0.1397,0.11641 0.26987,0.22119 0.28928,0.23283 0.0194,0.0116 -0.003,0.0212 -0.0487,0.0212 -0.0462,0 -0.17638,-0.10478 -0.28927,-0.23284 z m -14.30226,-0.0544 c 0,-0.0183 0.0591,-0.056 0.13139,-0.0837 0.0754,-0.0289 0.10934,-0.0147 0.0797,0.0333 -0.0497,0.0805 -0.21106,0.11899 -0.21106,0.0504 z m 13.33076,-0.73559 c -0.0311,-0.0503 -0.17624,-0.16449 -0.3225,-0.25368 -0.14626,-0.0892 -0.22354,-0.1623 -0.17174,-0.16247 0.0518,-1.8e-4 0.23802,0.11398 0.41381,0.25368 0.17579,0.1397 0.27853,0.254 0.22831,0.254 -0.0502,0 -0.11677,-0.0412 -0.14788,-0.0915 z m -10.71633,-0.77876 c 0.0409,-0.0408 0.18369,-0.0606 0.31742,-0.0439 0.22383,0.0279 0.21792,0.0338 -0.0743,0.0743 -0.18201,0.0252 -0.28573,0.0123 -0.24314,-0.0303 z m 9.21773,0.0485 c 0.10478,-0.0202 0.27623,-0.0202 0.381,0 0.10478,0.0202 0.019,0.0367 -0.1905,0.0367 -0.20955,0 -0.29527,-0.0165 -0.1905,-0.0367 z m -5.99016,-0.16467 c -0.67003,-0.11204 -1.61958,-0.10846 -2.37067,0.009 l -0.29633,0.0463 0.254,-0.0945 c 0.36838,-0.13707 2.17412,-0.11849 2.96333,0.0305 0.85911,0.16217 0.40987,0.16931 -0.55033,0.009 z"
       id="path297"
       inkscape:connector-curvature="0" />
    <path
       style="fill:#000000;stroke-width:0.08466667"
       d=""
       id="path295"
       inkscape:connector-curvature="0" />
    <path
       d="m 124.11672,154.06296 c -0.41656,-0.27771 -0.81279,-0.6223 -1.26999,-0.83143 -0.77301,-0.35221 -1.20819,-0.43603 -2.032,-0.54694 -0.55795,-0.0754 -0.61976,-0.12192 -1.22089,-0.13124 -0.90762,-0.0144 -1.91346,0.20998 -2.75843,0.53679 -1.36651,0.52832 -1.60443,0.98382 -2.11666,1.22682 0,0 0.0847,0.16933 0.0847,0.16933 -0.51308,0.17187 -0.83143,0.70358 -1.016,1.18533 -0.24299,-0.66548 -0.3285,-2.50951 -1.43933,-2.04978 -0.1143,0.0474 -0.22436,0.10922 -0.32088,0.18627 -0.27602,0.21929 -0.29972,0.42757 -0.69512,0.76284 0,0 -0.0847,0.16934 -0.0847,0.16934 0,0 0,0.16933 0,0.16933 0,0 0.0847,0.16933 0.0847,0.16933 0,0 0.254,0.0847 0.254,0.0847 -1.1032,0.54694 -1.61374,1.40462 -2.14968,2.45533 -0.24384,0.47751 -0.51053,0.93048 -0.69172,1.43932 -0.56811,1.59343 -0.67987,4.01912 -0.34205,5.67265 0.2523,1.23613 0.82973,2.18524 1.91346,2.87104 0.42926,0.27178 1.04393,0.52578 1.52399,0.26162 -0.46905,-0.28786 -1.08627,-0.37253 -1.26999,-1.016 -0.73745,-0.69341 -0.67818,-2.16238 -0.35476,-3.04799 0.13632,-0.37253 0.14986,-0.56218 0.43942,-0.84666 0,0 -0.0847,-0.254 -0.0847,-0.254 0,0 1.10066,-1.18533 1.10066,-1.18533 0,0 0.42333,-0.59266 0.42333,-0.59266 0,0 0.42333,0.16933 0.42333,0.16933 0,0 0,0.33866 0,0.33866 -0.23706,0.21252 -0.15747,0.46144 -0.19303,0.762 -0.1033,0.86614 -0.072,0.94911 -0.061,1.778 0.004,0.3666 -0.0601,0.68749 0.25399,0.93133 0,0 -0.0847,0.16933 -0.0847,0.16933 0.34205,0.35221 0.34967,0.5969 0.84666,0.84666 0.48345,0.24384 0.69681,0.0906 0.96689,0.23876 0.38523,0.20998 0.89408,0.91694 2.16577,1.03124 0,0 -0.72221,-0.76538 -0.72221,-0.76538 0,0 -0.80179,-1.68995 -0.80179,-1.68995 0.88731,0.0373 1.02023,0.65194 1.69418,0.96689 0.6333,0.29549 1.89314,0.37592 2.62381,0.47244 -0.97197,0.51393 -1.23359,0.80433 -2.03284,1.48674 0,0 -0.75353,0.57658 -0.75353,0.57658 0,0 -0.60367,0.55372 -0.60367,0.55372 -0.42164,0.30649 -1.17179,0.68241 -1.09728,1.27762 -0.5461,0 -1.2048,-0.14478 -1.35466,0.508 0,0 1.08204,0.16933 1.08204,0.16933 0,0 0,0.16002 0,0.16002 -0.0203,0.66378 0.58081,-0.10922 0.69595,-0.24469 0.39963,0.27517 0.67225,-0.0533 1.016,-0.29633 0.46651,-0.32935 0.46905,-0.41656 0.85005,-0.73914 0,0 0.6731,-0.50715 0.6731,-0.50715 0,0 0.93218,-0.74337 0.93218,-0.74337 0,0 -0.0466,0.94572 -0.0466,0.94572 0,0 -1.08627,1.59512 -1.08627,1.59512 0,0 -0.094,0.71204 -0.094,0.71204 0,0 -0.46651,0.64177 -0.46651,0.64177 -0.11515,0.4699 -0.60621,0.62569 -0.0728,1.15824 0,0 0.24215,0.19643 0.24215,0.19643 -0.58928,0.41063 -0.75776,1.59935 -1.27,2.11666 0,0 0.0847,0.16933 0.0847,0.16933 -0.33866,0.22691 -0.6858,1.19718 -0.76877,1.60866 -0.0542,0.26839 -0.0229,0.59775 0.34713,0.51901 0.31242,-0.066 0.86953,-0.62569 1.09897,-0.85767 0,0 0.63077,-0.72644 0.63077,-0.72644 0,0 0.78655,-0.79756 0.78655,-0.79756 0,0 1.10066,-1.27508 1.10066,-1.27508 0.26924,-0.20319 0.36068,0.0279 0.95335,0.13547 0.61467,0.11091 0.65362,-0.0576 1.18532,-0.13039 0,0 -0.0847,4.57199 -0.0847,4.57199 8.5e-4,0.30226 -0.0593,0.90593 0.42587,0.81618 0.15579,-0.0288 0.26501,-0.11429 0.36153,-0.23621 0.21505,-0.26924 0.47582,-1.22428 0.59351,-1.59512 0.10498,-0.33189 0.20743,-0.40471 0.14308,-0.76284 0,0 0.0847,-0.16934 0.0847,-0.16934 0.22013,-0.19642 0.19389,-0.47921 0.2667,-0.76199 0,0 0.42926,-1.77292 0.42926,-1.77292 0.1524,-0.4318 0.79163,-0.40555 0.4047,-0.76708 0.0635,-0.28194 0.0779,-0.26839 -0.0847,-0.508 0,0 0.16933,-0.0847 0.16933,-0.0847 0,0 0,-0.0847 0,-0.0847 -0.42841,-0.80179 -0.23876,-1.47912 -0.29041,-1.77799 -0.0322,-0.18966 -0.39369,-1.05918 -0.49275,-1.27 -0.11769,-0.24807 -0.18796,-0.50376 -0.40217,-0.67733 0,0 0.254,-1.86266 0.254,-1.86266 0.87206,0.30649 0.87799,0.22521 1.69333,0.39793 0.21082,0.0186 0.54017,0.13885 0.73575,0 0.21759,-0.11176 0.19388,-0.43095 0.19134,-0.65193 0,0 0,-1.524 0,-1.524 0,0 -0.17271,-0.76199 -0.17271,-0.76199 -0.003,-0.22522 0.10837,-0.38524 0.12361,-0.59267 0.0576,-0.26077 -0.0254,-0.39624 0,-0.5571 -0.007,-0.16764 0.0864,-0.30311 0.13885,-0.4589 0,0 0.10753,-0.45889 0.10753,-0.45889 0.15663,-0.46312 0.62822,-1.14723 0.14562,-1.5731 0,0 0.16934,-0.508 0.16934,-0.508 0,0 -0.0847,-0.254 -0.0847,-0.254 0.29549,-0.254 0.17103,-0.51477 0.30311,-0.83227 0.16002,-0.38523 0.42587,-0.32258 0.62822,-1.28439 0,0 1.39869,1.18533 1.39869,1.18533 0,0 0.46143,0.66294 0.46143,0.66294 0,0 0.5461,0.69173 0.5461,0.69173 0,0 0.89577,1.60866 0.89577,1.60866 -0.094,0.32935 -0.16087,1.79831 -0.0847,2.11666 -0.27686,0.2142 -0.25315,0.45466 -0.37845,0.762 -0.19558,0.47836 -0.40979,0.8111 -0.89154,1.01599 0.38015,0.34459 0.76877,0.0305 1.09304,-0.27178 0.70104,-0.65278 0.97536,-1.62305 1.18279,-2.52221 0.22013,-0.95504 0.12785,-0.74591 0.18711,-1.60866 0.0982,-1.44102 0.11346,-2.0303 -0.15494,-3.47132 -0.10922,-0.5842 -0.18711,-1.04563 -0.41317,-1.60867 0,0 -0.92879,-1.60866 -0.92879,-1.60866 -0.16171,-0.24892 -0.38015,-0.47667 -0.45804,-0.762 -0.85598,-0.61298 -1.62221,-1.69078 -2.794,-1.60104 -0.3285,0.0254 -0.54694,0.127 -0.83735,0.24638 0.072,-0.27686 0.19304,-0.73744 0,-0.99313 -0.28193,-0.40471 -1.60273,-0.51054 -1.85758,-0.15156 -0.21928,0.30988 0.0686,1.60697 0.15494,1.99136 z"
       id="S__lection__2"
       inkscape:connector-curvature="0"
       style="fill:#ffffff;fill-opacity:1;stroke:url(#linearGradient4976);stroke-width:0.08466641;stroke-opacity:0"
       inkscape:label="#Sélection #2" />
  </g>
</svg>
